:SAMPLES-PER-SECOND 30
:FULLY-SPECIFIED
:DEGREES
683
root  -39.8843 34.6484 -2.53915 -171.194 70.9588 179.289
RightUpLeg  -17.0484 -29.8372 -4.92986
RightLeg  4.28296 -4.57674 -0.0463667
RightFoot  10.768 0.115412 -0.666112
RightToes  -26.1848 -0.118551 -0.224594
Spine  -1.0998 0.757766 -1.45382
Spine1  -2.26286 1.6248 -2.19114
HEad  -73.4292 -14.6407 11.3108
LeftShoulder1  -1.94126e-019 -3.10601e-018 -2.51263e-017
LeftArm  15.8336 30.5532 -64.8885
LeftForeArm  125.887 -74.7419 -136.536
LeftHand  0.19221 -0.738011 -3.58792
RightShoulder  -4.96962e-017 0 -2.36833e-017
RightArm  17.8465 -23.7496 69.1163
RightForeArm  130.878 80.362 109.469
RightHand  -0.0338379 1.80852 -0.706198
LeftUpLeg  -11.5231 4.29756 -6.39757
LeftLeg  13.718 17.9999 3.12847
LeftFoot  -3.39625 -0.0330055 -0.951708
LeftToes  -3.36039 1.49739e-006 1.00523e-007
684
root  -39.9513 34.6399 -2.56409 -171.476 72.7156 179.284
RightUpLeg  -17.5694 -32.0861 -4.38221
RightLeg  4.84302 -4.48454 -0.0891594
RightFoot  11.1428 0.120535 -0.677509
RightToes  -28.2758 -0.13223 -0.239806
Spine  -1.03698 0.768919 -1.61673
Spine1  -2.146 1.64865 -2.52093
HEad  -73.3711 -14.017 11.4141
LeftShoulder1  -1.94126e-019 -3.10601e-018 -2.51263e-017
LeftArm  16.5519 29.4025 -64.475
LeftForeArm  124.616 -75.1365 -135.063
LeftHand  0.172475 -0.521708 -3.35472
RightShoulder  -4.96962e-017 0 -2.36833e-017
RightArm  17.0612 -23.7456 69.3597
RightForeArm  128.914 80.5183 106.999
RightHand  -0.0107848 1.78655 -0.332637
LeftUpLeg  -11.2426 6.0058 -6.61158
LeftLeg  13.5373 18.0544 3.08007
LeftFoot  -3.49326 -0.0350276 -0.987078
LeftToes  -3.36582 1.49739e-006 1.00523e-007
685
root  -40.0263 34.6318 -2.59365 -172.11 74.5327 178.869
RightUpLeg  -17.8656 -32.1286 -4.69129
RightLeg  5.78312 -4.54264 -0.164755
RightFoot  11.8209 0.134652 -0.741868
RightToes  -28.3179 -0.132511 -0.240107
Spine  -1.01086 0.783757 -1.78535
Spine1  -2.101 1.67785 -2.86144
HEad  -73.2438 -13.2537 11.4347
LeftShoulder1  -1.94126e-019 -3.10601e-018 -2.51263e-017
LeftArm  17.0005 28.2206 -64.4525
LeftForeArm  121.982 -75.9716 -131.627
LeftHand  0.167345 -0.59135 -3.20744
RightShoulder  -4.96962e-017 0 -2.36833e-017
RightArm  16.133 -23.5602 69.6266
RightForeArm  124.765 80.7607 102.026
RightHand  0.0196908 1.76123 0.164346
LeftUpLeg  -10.979 7.656 -6.92494
LeftLeg  13.2808 18.1691 3.0169
LeftFoot  -3.53937 -0.0361951 -1.00989
LeftToes  -3.13775 1.49739e-006 1.00523e-007
686
root  -40.1074 34.6238 -2.62826 -173.153 76.2152 178.033
RightUpLeg  -17.6041 -29.1198 -6.13346
RightLeg  7.14337 -4.9115 -0.29483
RightFoot  12.2151 0.151088 -0.850948
RightToes  -27.2713 -0.125589 -0.23256
Spine  -1.02141 0.798679 -1.92726
Spine1  -2.12667 1.70689 -3.14879
HEad  -72.5339 -12.5306 10.6121
LeftShoulder1  -1.94126e-019 -3.10601e-018 -2.51263e-017
LeftArm  17.2558 26.78 -64.9232
LeftForeArm  114.617 -77.4976 -123.096
LeftHand  0.171867 -0.853037 -3.12877
RightShoulder  -4.96962e-017 0 -2.36833e-017
RightArm  14.9516 -23.2118 69.8841
RightForeArm  115.703 81.0412 90.9998
RightHand  0.0212006 2.0533 0.156582
LeftUpLeg  -10.7581 8.70405 -7.29967
LeftLeg  13.1019 18.7439 3.04995
LeftFoot  -3.53576 -0.0381543 -1.04863
LeftToes  -2.87365 1.49739e-006 1.00523e-007
687
root  -40.1806 34.6144 -2.6448 -174.231 77.5956 177.154
RightUpLeg  -17.4573 -25.8678 -7.70389
RightLeg  9.15322 -4.74359 -0.452027
RightFoot  12.7235 0.158519 -0.861343
RightToes  -28.1881 -0.131645 -0.239178
Spine  -1.02225 0.74642 -1.99104
Spine1  -2.12843 1.60075 -3.27757
HEad  -71.9086 -11.8686 9.63727
LeftShoulder1  -1.94126e-019 -3.10601e-018 -2.51263e-017
LeftArm  17.1159 25.2196 -66.097
LeftForeArm  97.5088 -79.2561 -103.995
LeftHand  0.165799 -1.21889 -2.81077
RightShoulder  -4.96962e-017 0 -2.36833e-017
RightArm  13.4664 -22.5995 70.2392
RightForeArm  99.1543 80.6959 71.9139
RightHand  -0.0206632 2.16048 -0.49947
LeftUpLeg  -10.5713 9.38586 -7.58511
LeftLeg  12.9745 19.4081 3.11047
LeftFoot  -3.52502 -0.038561 -1.09153
LeftToes  -2.84097 1.49739e-006 1.00523e-007
688
root  -40.2447 34.6123 -2.63897 -174.652 78.5919 176.809
RightUpLeg  -17.3935 -23.5347 -8.95434
RightLeg  11.0205 -4.02748 -0.516801
RightFoot  13.4279 0.15501 -0.759878
RightToes  -29.2033 -0.138473 -0.246391
Spine  -1.10813 0.682499 -1.94942
Spine1  -2.2933 1.47014 -3.1946
HEad  -71.3119 -11.2511 8.5773
LeftShoulder1  -1.94126e-019 -3.10601e-018 -2.51263e-017
LeftArm  16.9548 23.2744 -67.9987
LeftForeArm  64.8877 -78.943 -68.5892
LeftHand  0.146821 -1.63776 -2.28842
RightShoulder  -4.96962e-017 0 -2.36833e-017
RightArm  11.3981 -22.0798 70.6862
RightForeArm  78.835 78.4736 48.9064
RightHand  -0.0866222 2.286 -1.50073
LeftUpLeg  -10.4641 9.95118 -7.69622
LeftLeg  12.7131 19.802 3.08045
LeftFoot  -3.4122 -0.0369244 -1.07805
LeftToes  -3.12751 1.49739e-006 1.00523e-007
689
root  -40.3049 34.6222 -2.60911 -175.046 79.1088 176.434
RightUpLeg  -17.1626 -22.7874 -9.99795
RightLeg  12.2605 -2.58716 -0.389178
RightFoot  13.7619 0.12032 -0.447924
RightToes  -29.5566 -0.140879 -0.248872
Spine  -1.18978 0.592477 -1.86198
Spine1  -2.4488 1.28693 -3.01912
HEad  -70.7741 -10.9016 7.66839
LeftShoulder1  -1.94126e-019 -3.10601e-018 -2.51263e-017
LeftArm  16.5223 20.8394 -70.6515
LeftForeArm  37.2287 -73.3826 -36.7942
LeftHand  0.110337 -2.0396 -1.55678
RightShoulder  -4.96962e-017 0 -2.36833e-017
RightArm  8.32906 -21.4998 71.4986
RightForeArm  63.3908 73.5073 30.7482
RightHand  -0.164729 2.33537 -2.67042
LeftUpLeg  -10.4024 10.4534 -7.7813
LeftLeg  12.3349 19.9359 2.96877
LeftFoot  -3.18562 -0.0324087 -1.00389
LeftToes  -3.0919 1.49739e-006 1.00523e-007
690
root  -40.3497 34.6448 -2.53582 -175.151 79.4875 176.28
RightUpLeg  -16.7056 -22.7029 -10.8065
RightLeg  12.7047 -1.51678 -0.240102
RightFoot  13.5976 0.087718 -0.192576
RightToes  -30.0154 -0.144027 -0.252073
Spine  -1.28743 0.568072 -1.76421
Spine1  -2.6419 1.23748 -2.82692
HEad  -70.2819 -10.5834 7.37063
LeftShoulder1  -1.94126e-019 -3.10601e-018 -2.51263e-017
LeftArm  15.9205 17.9284 -73.78
LeftForeArm  26.2253 -63.131 -20.104
LeftHand  0.0859902 -2.47006 -1.07524
RightShoulder  -4.96962e-017 0 -2.36833e-017
RightArm  4.12452 -20.7728 72.8351
RightForeArm  54.6918 65.7276 19.19
RightHand  -0.252683 2.21448 -4.04755
LeftUpLeg  -10.2693 10.3651 -7.71438
LeftLeg  11.8567 20.1973 2.8378
LeftFoot  -2.8434 -0.0261795 -0.893244
LeftToes  -3.12723 1.49739e-006 1.00523e-007
691
root  -40.3777 34.6684 -2.42457 -175.07 79.7485 176.303
RightUpLeg  -15.9511 -22.7675 -11.461
RightLeg  12.423 -1.2414 -0.190109
RightFoot  13.5777 0.0796624 -0.127534
RightToes  -30.6242 -0.148243 -0.256281
Spine  -1.39196 0.53641 -1.68397
Spine1  -2.85541 1.17291 -2.67129
HEad  -69.6341 -10.2416 7.48964
LeftShoulder1  -1.94126e-019 -3.10601e-018 -2.51263e-017
LeftArm  14.6497 14.8611 -77.2454
LeftForeArm  24.8687 -49.7434 -11.3596
LeftHand  0.0356815 -2.71271 -0.301027
RightShoulder  -4.96962e-017 0 -2.36833e-017
RightArm  -1.22449 -19.5589 74.7703
RightForeArm  50.7007 55.0091 11.7726
RightHand  -0.362656 2.025 -5.85865
LeftUpLeg  -10.1348 10.9494 -7.59525
LeftLeg  11.1423 20.0773 2.57244
LeftFoot  -2.41376 -0.0187475 -0.728311
LeftToes  -3.51286 1.49739e-006 1.00523e-007
692
root  -40.3837 34.6843 -2.29433 -175.739 79.9463 175.543
RightUpLeg  -15.151 -22.9415 -12.0944
RightLeg  11.8575 -0.426711 -0.0605268
RightFoot  13.8957 0.0583011 0.0588281
RightToes  -32.1121 -0.158732 -0.266374
Spine  -1.52043 0.466604 -1.67151
Spine1  -3.11881 1.02567 -2.64887
HEad  -68.6091 -9.79875 7.94358
LeftShoulder1  -1.94126e-019 -3.10601e-018 -2.51263e-017
LeftArm  11.9918 11.8899 -80.8825
LeftForeArm  29.8403 -34.1732 -5.86515
LeftHand  -0.065747 -2.92685 1.14232
RightShoulder  -4.96962e-017 0 -2.36833e-017
RightArm  -7.84742 -17.6032 76.9884
RightForeArm  49.5636 41.6073 6.74994
RightHand  -0.451364 1.2006 -8.08358
LeftUpLeg  -9.79497 10.8015 -7.54442
LeftLeg  10.1563 20.4487 2.26911
LeftFoot  -1.76045 -0.0101905 -0.501705
LeftToes  -4.42928 1.49739e-006 1.00523e-007
693
root  -40.3753 34.6931 -2.09223 -177.033 80.7823 174.126
RightUpLeg  -14.4789 -21.1561 -12.5817
RightLeg  11.0493 1.49021 0.193496
RightFoot  14.7522 -0.000597173 0.531611
RightToes  -34.7873 -0.178238 -0.283824
Spine  -1.66573 0.516358 -1.72191
Spine1  -3.41547 1.10906 -2.75141
HEad  -67.5032 -9.03285 8.53797
LeftShoulder1  -1.94126e-019 -3.10601e-018 -2.51263e-017
LeftArm  2.17839 9.15356 -84.0259
LeftForeArm  42.3296 -17.805 -3.08578
LeftHand  -0.254115 -2.54421 3.93123
RightShoulder  -4.96962e-017 0 -2.36833e-017
RightArm  -16.2492 -14.7119 78.968
RightForeArm  51.3082 25.9625 2.91619
RightHand  -0.445762 -0.321449 -10.2264
LeftUpLeg  -9.38665 11.4468 -7.47224
LeftLeg  8.95848 20.6333 1.86284
LeftFoot  -1.15391 -0.00444875 -0.280223
LeftToes  -5.0036 1.49739e-006 1.00523e-007
694
root  -40.3512 34.6585 -1.85216 -179.862 81.684 170.911
RightUpLeg  -14.4701 -18.7422 -12.9621
RightLeg  11.0003 4.71086 0.605378
RightFoot  14.8999 -0.112384 1.36842
RightToes  -36.9678 -0.194725 -0.297361
Spine  -1.82079 0.622271 -1.80505
Spine1  -3.77096 1.36928 -2.97762
HEad  -66.5085 -8.08921 8.98033
LeftShoulder1  -1.94126e-019 -3.10601e-018 -2.51263e-017
LeftArm  -8.3636 7.67286 -84.7556
LeftForeArm  52.4663 -6.10963 -1.04093
LeftHand  -0.435784 -0.324635 8.94636
RightShoulder  -4.96962e-017 0 -2.36833e-017
RightArm  -28.5682 -12.3296 79.3002
RightForeArm  58.044 12.368 1.44255
RightHand  -0.334716 -2.33555 -12.4559
LeftUpLeg  -9.34199 12.2289 -7.60566
LeftLeg  8.05981 20.7179 1.55036
LeftFoot  -0.575587 -0.00115735 -0.068881
LeftToes  -6.39536 1.49739e-006 1.00523e-007
695
root  -40.3038 34.6104 -1.55988 175.596 82.615 165.932
RightUpLeg  -14.6365 -16.1326 -13.0805
RightLeg  11.2016 7.15226 0.943072
RightFoot  13.6057 -0.160352 1.8392
RightToes  -38.8372 -0.209261 -0.30846
Spine  -1.9588 0.747986 -1.93562
Spine1  -4.07859 1.62121 -3.28367
HEad  -66.2261 -7.17852 9.35438
LeftShoulder1  -1.94126e-019 -3.10601e-018 -2.51263e-017
LeftArm  -12.9645 9.0659 -83.205
LeftForeArm  49.8439 -2.65742 -0.439621
LeftHand  -0.317792 2.22288 11.4496
RightShoulder  -4.96962e-017 0 -2.36833e-017
RightArm  -40.8944 -12.4573 78.3401
RightForeArm  66.8097 5.86829 0.977163
RightHand  -0.13483 -4.34715 -13.5221
LeftUpLeg  -9.22889 13.4535 -7.78025
LeftLeg  6.9775 20.3761 1.14767
LeftFoot  0.151398 -4.70336e-005 0.197351
LeftToes  -8.08529 1.49739e-006 1.00523e-007
696
root  -40.2258 34.569 -1.24582 171.271 83.4881 161.039
RightUpLeg  -14.9414 -14.7168 -12.5968
RightLeg  11.091 6.88519 0.894562
RightFoot  10.6674 -0.0861428 1.41857
RightToes  -36.9071 -0.194259 -0.296992
Spine  -2.09524 0.828148 -2.02913
Spine1  -4.34967 1.70666 -3.46243
HEad  -66.7654 -6.12254 9.72107
LeftShoulder1  -1.94126e-019 -3.10601e-018 -2.51263e-017
LeftArm  -15.0578 12.4615 -81
LeftForeArm  43.1821 -2.97869 -0.506235
LeftHand  -0.286739 2.40085 10.8885
RightShoulder  -4.96962e-017 0 -2.36833e-017
RightArm  -42.1099 -15.1049 77.2594
RightForeArm  67.9023 4.55903 0.745415
RightHand  -0.0754679 -4.79072 -11.4345
LeftUpLeg  -9.05352 14.911 -7.78524
LeftLeg  5.5672 19.6894 0.634685
LeftFoot  1.06537 -0.00329267 0.515747
LeftToes  -9.52629 1.49739e-006 1.00523e-007
697
root  -40.1255 34.4971 -0.902575 168.792 84.0046 157.923
RightUpLeg  -15.3515 -15.6053 -11.547
RightLeg  10.6672 5.52497 0.677092
RightFoot  8.65395 -0.0356313 0.973429
RightToes  -35.1092 -0.180639 -0.285862
Spine  -2.22576 0.736211 -2.08657
Spine1  -4.60027 1.44045 -3.5495
HEad  -67.6912 -5.02398 9.57856
LeftShoulder1  -1.94126e-019 -3.10601e-018 -2.51263e-017
LeftArm  -15.7181 17.5724 -78.2855
LeftForeArm  36.7136 -7.42409 -1.2962
LeftHand  -0.304285 0.688522 7.50454
RightShoulder  -4.96962e-017 0 -2.36833e-017
RightArm  -39.6664 -18.9259 76.7177
RightForeArm  66.9456 5.94389 0.988375
RightHand  -0.208672 -2.88093 -9.17216
LeftUpLeg  -9.66785 16.0793 -7.55947
LeftLeg  5.72867 18.966 0.664728
LeftFoot  1.4122 -0.00557616 0.614036
LeftToes  -11.9068 1.49739e-006 1.00523e-007
